<svg width="28" height="28" viewBox="0 0 28 28" fill="none" xmlns="http://www.w3.org/2000/svg">
<path opacity="0.3" fill-rule="evenodd" clip-rule="evenodd" d="M14.0002 25.6673C20.4435 25.6673 25.6668 20.444 25.6668 14.0007C25.6668 7.55733 20.4435 2.33398 14.0002 2.33398C7.55684 2.33398 2.3335 7.55733 2.3335 14.0007C2.3335 20.444 7.55684 25.6673 14.0002 25.6673Z" fill="#008060"/>
<path fill-rule="evenodd" clip-rule="evenodd" d="M12.3563 15.4097V17.3452H13.8263C16.7908 17.3452 19.1183 15.0667 19.1183 12.1267C19.1183 9.1867 16.7908 6.9082 13.8263 6.9082C10.8618 6.9082 8.55884 9.1867 8.55884 12.1267H10.6413C10.6413 10.2647 11.9398 8.8437 13.8263 8.8437C15.6883 8.8437 17.0358 10.2647 17.0358 12.1267C17.0358 13.9887 15.6883 15.4097 13.8263 15.4097H12.3563ZM13.8335 18.6659C13.2812 18.6659 12.8335 19.1136 12.8335 19.6659V19.9992C12.8335 20.5515 13.2812 20.9992 13.8335 20.9992H14.1668C14.7191 20.9992 15.1668 20.5515 15.1668 19.9992V19.6659C15.1668 19.1136 14.7191 18.6659 14.1668 18.6659H13.8335Z" fill="#008060"/>
</svg>
