<svg width="24" height="25" viewBox="0 0 24 25" fill="none" xmlns="http://www.w3.org/2000/svg">
<path d="M17.6132 15.6506C18.7994 14.0357 19.5 12.0421 19.5 9.88477C19.5 4.49999 15.1348 0.134766 9.75 0.134766C4.36522 0.134766 0 4.49999 0 9.88477C0 15.2695 4.36522 19.6348 9.75 19.6348C11.9079 19.6348 13.902 18.9338 15.5171 17.747L15.5158 17.748C15.5601 17.808 15.6093 17.8654 15.6636 17.9197L21.4393 23.6954C22.0251 24.2812 22.9749 24.2812 23.5607 23.6954C24.1465 23.1096 24.1465 22.1599 23.5607 21.5741L17.785 15.7984C17.7307 15.7441 17.6732 15.6948 17.6132 15.6506ZM18 9.88477C18 14.4411 14.3063 18.1348 9.75 18.1348C5.19365 18.1348 1.5 14.4411 1.5 9.88477C1.5 5.32842 5.19365 1.63477 9.75 1.63477C14.3063 1.63477 18 5.32842 18 9.88477Z" fill="white"/>
</svg>
