<svg width="250" height="214" viewBox="0 0 250 214" fill="none" xmlns="http://www.w3.org/2000/svg">
<path d="M112.591 244.963L86.1977 265.492C88.2409 259.216 90.0058 253.833 91.7655 248.45L87.1197 245.72L58.8615 282.992L56.1158 281.414C59.4327 274.357 62.753 267.302 66.0767 260.247L62.501 258.226C57.9837 265.39 53.4639 272.554 48.9415 279.717L46.934 278.755C47.7589 275.811 48.5813 272.871 49.5085 269.545C47.8611 269.289 46.5253 268.665 45.5726 269.033C41.6215 270.548 37.9104 273.367 33.8776 273.848C26.8181 274.69 19.1789 275.895 19.1074 264.057C19.0767 258.61 15.7105 252.958 12.9623 247.885C12.0862 246.268 8.33176 246.219 4.08179 244.883C-1.86409 201.246 -2.214 155.822 9.12352 110.05C15.1409 85.7599 14.8855 59.9599 18.3182 34.9608C20.7522 17.2713 17.8967 -2.06326 33.3872 -16.3065C36.3269 -19.0108 36.7688 -24.8749 37.5452 -29.4239C40.2525 -45.3301 42.2779 -61.3617 45.3198 -77.1988C46.086 -81.185 49.4267 -84.8155 52.0498 -88.249C53.5209 -90.173 56.9025 -90.938 57.7913 -92.949C63.9747 -106.803 69.4251 -120.995 75.7234 -134.811C80.9874 -146.355 85.4059 -158.861 93.1345 -168.583C114.571 -195.617 138.883 -220.419 159.328 -248.122C169.32 -261.662 173.631 -278.735 190.56 -287.661C195.688 -290.366 195.923 -301.549 199.575 -308.206C201.721 -312.115 206.162 -314.779 209.572 -318L218.47 -306.853C223.216 -307.74 231.182 -309.723 232.61 -298.32C233.358 -300.535 234.44 -302.623 235.82 -304.509C238.924 -307.337 242.179 -309.994 245.572 -312.466C247.353 -308.585 248.709 -304.521 249.615 -300.346C252.606 -273.249 237.261 -249.739 234.29 -223.914C232.132 -205.096 233.069 -185.928 232.446 -166.923C232.191 -158.828 235.767 -149.51 225.499 -142.361L220.595 -155.643L218.739 -155.456C218.138 -147.112 217.541 -138.769 216.856 -129.246C210.698 -138.634 206.627 -136.433 202.4 -129.229C196.883 -119.826 196.643 -119.967 185.893 -122.643L170.569 -110.191C166.048 -99.6523 162.5 -90.8254 158.501 -82.2109C153.722 -71.9206 148.17 -63.145 152.795 -49.7666C155.712 -41.3235 149.076 -29.8102 147.71 -19.5481C147.407 -14.1756 147.873 -8.78729 149.094 -3.54721C150.154 3.00513 151.735 9.47302 153.288 16.9208L160.34 13.2878L168.569 35.1143L176.946 22.9077C190.96 30.3606 191.428 43.5651 190.319 57.4833L193.834 56.9153V36.2171L196.153 34.0833C199.752 39.4561 205.925 44.5987 206.428 50.2505C207.567 63.0583 207.891 76.5876 204.957 88.9708C199.936 110.181 192.358 130.802 185.329 151.493C184.325 154.448 180.397 156.403 180.078 156.702C178.022 163.71 176.451 169.057 174.883 174.404L170.349 173.424C170.837 169.431 171.327 165.439 172.086 159.261C150.039 192.165 134.983 228.524 95.612 244.103L99.1877 248.729L112.591 244.963ZM97.7089 147.74C87.089 148.231 86.1568 150.252 76.6659 193.102C90.6699 179.163 93.2699 163.254 97.7089 147.752V147.74Z" fill="white" fill-opacity="0.05"/>
</svg>
